<svg width="16" height="16" viewBox="0 0 16 16" fill="none" xmlns="http://www.w3.org/2000/svg">
  <path d="M6 7.2C4.785 7.2 3.8 6.215 3.8 5C3.8 3.785 4.785 2.8 6 2.8C7.215 2.8 8.2 3.785 8.2 5C8.2 6.215 7.215 7.2 6 7.2Z" stroke="currentColor" stroke-width="1.5" stroke-linecap="round" stroke-linejoin="round"/>
  <path d="M10.5 7.2C9.505 7.2 8.7 6.395 8.7 5.4C8.7 4.405 9.505 3.6 10.5 3.6C11.495 3.6 12.3 4.405 12.3 5.4C12.3 6.395 11.495 7.2 10.5 7.2Z" stroke="currentColor" stroke-width="1.5" stroke-linecap="round" stroke-linejoin="round"/>
  <path d="M2.8 13.2C2.8 11.433 4.233 10 6 10C7.767 10 9.2 11.433 9.2 13.2" stroke="currentColor" stroke-width="1.5" stroke-linecap="round"/>
  <path d="M10 13.2C10 12.105 10.805 11.2 11.8 11.2C12.795 11.2 13.6 12.105 13.6 13.2" stroke="currentColor" stroke-width="1.5" stroke-linecap="round"/>
</svg>
