<svg width="20" height="20" viewBox="0 0 20 20" fill="none" xmlns="http://www.w3.org/2000/svg">
  <path d="M2 2L18 18" stroke="#666" stroke-width="2" stroke-linecap="round"/>
  <path d="M9.8 4.1C9.87 4.1 9.93 4.1 10 4.1C16 4.1 19 10 19 10C18.3 11.3 17.4 12.4 16.3 13.3M6.7 6.6C4.7 7.9 3.2 9.8 2 10C2 10 5 15.9 10 15.9C11.3 15.9 12.5 15.6 13.5 15.1" stroke="#666" stroke-width="2" stroke-linecap="round" stroke-linejoin="round"/>
  <path d="M7.6 12.4C7.2 11.7 7 10.9 7 10C7 8.3 8.3 7 10 7C10.9 7 11.7 7.3 12.3 7.8" stroke="#666" stroke-width="2" stroke-linecap="round" stroke-linejoin="round"/>
</svg>
