<svg width="20" height="20" viewBox="0 0 20 20" fill="none" xmlns="http://www.w3.org/2000/svg">
  <path d="M9 6H11.6C12 6 12.35 6.24 12.5 6.6L13.2 8.2" stroke="currentColor" stroke-width="1.6" stroke-linecap="round" stroke-linejoin="round"/>
  <path d="M7.6 8.2H10.8" stroke="currentColor" stroke-width="1.6" stroke-linecap="round"/>
  <path d="M6.2 12.8C7.41503 12.8 8.4 11.815 8.4 10.6C8.4 9.38497 7.41503 8.4 6.2 8.4C4.98497 8.4 4 9.38497 4 10.6C4 11.815 4.98497 12.8 6.2 12.8Z" stroke="currentColor" stroke-width="1.6" stroke-linecap="round" stroke-linejoin="round"/>
  <path d="M14.2 12.8C15.415 12.8 16.4 11.815 16.4 10.6C16.4 9.38497 15.415 8.4 14.2 8.4C12.985 8.4 12 9.38497 12 10.6C12 11.815 12.985 12.8 14.2 12.8Z" stroke="currentColor" stroke-width="1.6" stroke-linecap="round" stroke-linejoin="round"/>
  <path d="M8.2 10.6H12" stroke="currentColor" stroke-width="1.6" stroke-linecap="round"/>
  <path d="M12.2 7.2H15" stroke="currentColor" stroke-width="1.6" stroke-linecap="round"/>
</svg>
