<svg width="20" height="20" viewBox="0 0 20 20" fill="none" xmlns="http://www.w3.org/2000/svg">
  <path d="M4 7.8L5.4 5.2C5.65 4.75 6.12 4.5 6.64 4.5H12.2C12.65 4.5 13.06 4.73 13.32 5.1L15.6 8.4" stroke="currentColor" stroke-width="1.6" stroke-linecap="round" stroke-linejoin="round"/>
  <path d="M3.2 8.6C3.2 8.04772 3.64772 7.6 4.2 7.6H15.8C16.3523 7.6 16.8 8.04772 16.8 8.6V12.6C16.8 13.1523 16.3523 13.6 15.8 13.6H4.2C3.64772 13.6 3.2 13.1523 3.2 12.6V8.6Z" stroke="currentColor" stroke-width="1.6" stroke-linecap="round" stroke-linejoin="round"/>
  <path d="M5.8 13.6V15" stroke="currentColor" stroke-width="1.6" stroke-linecap="round"/>
  <path d="M14.2 13.6V15" stroke="currentColor" stroke-width="1.6" stroke-linecap="round"/>
  <path d="M6.2 9.8H9" stroke="currentColor" stroke-width="1.6" stroke-linecap="round"/>
</svg>
