<svg xmlns="http://www.w3.org/2000/svg" width="20" height="20" viewBox="0 0 20 20" fill="none">
<path d="M4.99967 18.3332C4.55765 18.3332 4.13372 18.1576 3.82116 17.845C3.5086 17.5325 3.33301 17.1085 3.33301 16.6665V3.33317C3.33301 2.89115 3.5086 2.46722 3.82116 2.15466C4.13372 1.8421 4.55765 1.66651 4.99967 1.66651H11.6663C11.9301 1.66608 12.1914 1.71784 12.4351 1.81881C12.6788 1.91979 12.9001 2.06797 13.0863 2.25484L16.0763 5.24484C16.2637 5.4311 16.4123 5.65263 16.5136 5.89664C16.6149 6.14065 16.6668 6.40231 16.6663 6.66651V16.6665C16.6663 17.1085 16.4907 17.5325 16.1782 17.845C15.8656 18.1576 15.4417 18.3332 14.9997 18.3332H4.99967Z" stroke="currentColor" stroke-width="1.66667" stroke-linecap="round" stroke-linejoin="round"/>
<path d="M11.667 1.6665V5.83317C11.667 6.05418 11.7548 6.26615 11.9111 6.42243C12.0674 6.57871 12.2793 6.6665 12.5003 6.6665H16.667" stroke="currentColor" stroke-width="1.66667" stroke-linecap="round" stroke-linejoin="round"/>
<path d="M8.33366 7.5H6.66699" stroke="currentColor" stroke-width="1.66667" stroke-linecap="round" stroke-linejoin="round"/>
<path d="M13.3337 10.8335H6.66699" stroke="currentColor" stroke-width="1.66667" stroke-linecap="round" stroke-linejoin="round"/>
<path d="M13.3337 14.1665H6.66699" stroke="currentColor" stroke-width="1.66667" stroke-linecap="round" stroke-linejoin="round"/>
</svg>