<svg xmlns="http://www.w3.org/2000/svg" width="20" height="20" viewBox="0 0 20 20" fill="none">
<path d="M15.8337 14.1663H17.5003C18.0003 14.1663 18.3337 13.833 18.3337 13.333V10.833C18.3337 10.083 17.7503 9.41634 17.0837 9.24967C15.5837 8.83301 13.3337 8.33301 13.3337 8.33301C13.3337 8.33301 12.2503 7.16634 11.5003 6.41634C11.0837 6.08301 10.5837 5.83301 10.0003 5.83301H4.16699C3.66699 5.83301 3.25033 6.16634 3.00033 6.58301L1.83366 8.99967C1.72331 9.32153 1.66699 9.65943 1.66699 9.99967V13.333C1.66699 13.833 2.00033 14.1663 2.50033 14.1663H4.16699" stroke="#90A1B9" stroke-width="1.66667" stroke-linecap="round" stroke-linejoin="round"/>
<path d="M5.83366 15.8333C6.75413 15.8333 7.50033 15.0871 7.50033 14.1667C7.50033 13.2462 6.75413 12.5 5.83366 12.5C4.91318 12.5 4.16699 13.2462 4.16699 14.1667C4.16699 15.0871 4.91318 15.8333 5.83366 15.8333Z" stroke="#90A1B9" stroke-width="1.66667" stroke-linecap="round" stroke-linejoin="round"/>
<path d="M7.5 14.167H12.5" stroke="#90A1B9" stroke-width="1.66667" stroke-linecap="round" stroke-linejoin="round"/>
<path d="M14.1667 15.8333C15.0871 15.8333 15.8333 15.0871 15.8333 14.1667C15.8333 13.2462 15.0871 12.5 14.1667 12.5C13.2462 12.5 12.5 13.2462 12.5 14.1667C12.5 15.0871 13.2462 15.8333 14.1667 15.8333Z" stroke="#90A1B9" stroke-width="1.66667" stroke-linecap="round" stroke-linejoin="round"/>
</svg>