<svg xmlns="http://www.w3.org/2000/svg" width="20" height="20" viewBox="0 0 20 20" fill="none">
<path d="M15.4167 17.5C17.0275 17.5 18.3333 16.1942 18.3333 14.5833C18.3333 12.9725 17.0275 11.6667 15.4167 11.6667C13.8058 11.6667 12.5 12.9725 12.5 14.5833C12.5 16.1942 13.8058 17.5 15.4167 17.5Z" stroke="#9810FA" stroke-width="1.66667" stroke-linecap="round" stroke-linejoin="round"/>
<path d="M4.58366 17.5C6.19449 17.5 7.50033 16.1942 7.50033 14.5833C7.50033 12.9725 6.19449 11.6667 4.58366 11.6667C2.97283 11.6667 1.66699 12.9725 1.66699 14.5833C1.66699 16.1942 2.97283 17.5 4.58366 17.5Z" stroke="#9810FA" stroke-width="1.66667" stroke-linecap="round" stroke-linejoin="round"/>
<path d="M12.5003 5.00001C12.9606 5.00001 13.3337 4.62691 13.3337 4.16668C13.3337 3.70644 12.9606 3.33334 12.5003 3.33334C12.0401 3.33334 11.667 3.70644 11.667 4.16668C11.667 4.62691 12.0401 5.00001 12.5003 5.00001Z" stroke="#9810FA" stroke-width="1.66667" stroke-linecap="round" stroke-linejoin="round"/>
<path d="M10 14.5833V11.6667L7.5 9.16666L10.8333 6.66666L12.5 9.16666H14.1667" stroke="#9810FA" stroke-width="1.66667" stroke-linecap="round" stroke-linejoin="round"/>
</svg>