<svg width="24" height="24" viewBox="0 0 24 24" fill="none" xmlns="http://www.w3.org/2000/svg">
  <path d="M3 13L5 8C5.3 7.25 6.05 6.75 6.85 6.75H17.15C17.95 6.75 18.7 7.25 19 8L21 13" stroke="currentColor" stroke-width="2" stroke-linecap="round" stroke-linejoin="round"/>
  <path d="M4 13H20V17C20 18.1046 19.1046 19 18 19H17" stroke="currentColor" stroke-width="2" stroke-linecap="round"/>
  <path d="M4 13V17C4 18.1046 4.89543 19 6 19H7" stroke="currentColor" stroke-width="2" stroke-linecap="round"/>
  <path d="M7 19C7 20.1046 6.10457 21 5 21C3.89543 21 3 20.1046 3 19C3 17.8954 3.89543 17 5 17C6.10457 17 7 17.8954 7 19Z" stroke="currentColor" stroke-width="2"/>
  <path d="M21 19C21 20.1046 20.1046 21 19 21C17.8954 21 17 20.1046 17 19C17 17.8954 17.8954 17 19 17C20.1046 17 21 17.8954 21 19Z" stroke="currentColor" stroke-width="2"/>
</svg>
