<svg width="24" height="24" viewBox="0 0 24 24" fill="none" xmlns="http://www.w3.org/2000/svg">
  <path d="M4 7C4 5.89543 4.89543 5 6 5H18C19.1046 5 20 5.89543 20 7V17C20 18.1046 19.1046 19 18 19H6C4.89543 19 4 18.1046 4 17V7Z" stroke="currentColor" stroke-width="2" stroke-linecap="round"/>
  <path d="M8 9H8.01" stroke="currentColor" stroke-width="2" stroke-linecap="round"/>
  <path d="M16 15H16.01" stroke="currentColor" stroke-width="2" stroke-linecap="round"/>
  <path d="M15 12C15 13.6569 13.6569 15 12 15C10.3431 15 9 13.6569 9 12C9 10.3431 10.3431 9 12 9C13.6569 9 15 10.3431 15 12Z" stroke="currentColor" stroke-width="2"/>
</svg>
