<svg width="16" height="16" viewBox="0 0 16 16" fill="none" xmlns="http://www.w3.org/2000/svg">
  <path d="M3 5.5H13" stroke="currentColor" stroke-width="1.5" stroke-linecap="round"/>
  <path d="M3 10.5H13" stroke="currentColor" stroke-width="1.5" stroke-linecap="round"/>
  <path d="M4.5 3.5H11.5C12.3284 3.5 13 4.17157 13 5V11C13 11.8284 12.3284 12.5 11.5 12.5H4.5C3.67157 12.5 3 11.8284 3 11V5C3 4.17157 3.67157 3.5 4.5 3.5Z" stroke="currentColor" stroke-width="1.5" stroke-linecap="round"/>
  <path d="M8 9.2C8.99411 9.2 9.8 8.39411 9.8 7.4C9.8 6.40589 8.99411 5.6 8 5.6C7.00589 5.6 6.2 6.40589 6.2 7.4C6.2 8.39411 7.00589 9.2 8 9.2Z" stroke="currentColor" stroke-width="1.5" stroke-linecap="round" stroke-linejoin="round"/>
</svg>
