<svg width="16" height="16" viewBox="0 0 16 16" fill="none" xmlns="http://www.w3.org/2000/svg">
  <path d="M5.2 2.6L6.4 4.2C6.75 4.68 6.68 5.34 6.24 5.74L5.5 6.4C6.2 7.8 7.3 8.9 8.7 9.6L9.36 8.86C9.76 8.42 10.42 8.35 10.9 8.7L12.5 9.9C13.06 10.32 13.14 11.12 12.66 11.62L11.9 12.4C11.5 12.8 10.93 12.98 10.37 12.88C6.56 12.2 3.8 9.44 3.12 5.63C3.02 5.07 3.2 4.5 3.6 4.1L4.38 3.34C4.88 2.86 5.68 2.94 6.1 3.5" stroke="currentColor" stroke-width="1.5" stroke-linecap="round" stroke-linejoin="round"/>
</svg>
